<?xml version="1.0" standalone="no"?>
<!DOCTYPE svg PUBLIC "-//W3C//DTD SVG 20010904//EN"
 "http://www.w3.org/TR/2001/REC-SVG-20010904/DTD/svg10.dtd">
<svg version="1.0" xmlns="http://www.w3.org/2000/svg"
 width="700.000000pt" height="700.000000pt" viewBox="0 0 700.000000 700.000000"
 preserveAspectRatio="xMidYMid meet">
<metadata>
Created by potrace 1.14, written by Peter Selinger 2001-2017
</metadata>
<g transform="translate(0.000000,700.000000) scale(0.100000,-0.100000)"
fill="#000000" stroke="none">
<path d="M3329 6296 c-2 -2 -49 -7 -104 -11 -55 -4 -109 -9 -120 -11 -11 -2
-40 -6 -65 -9 -198 -25 -572 -127 -745 -204 -160 -72 -229 -105 -305 -147 -47
-26 -98 -54 -115 -63 -91 -50 -299 -200 -420 -303 -61 -52 -259 -249 -305
-303 -343 -404 -560 -866 -635 -1350 -2 -11 -6 -33 -9 -50 -31 -166 -25 -631
11 -800 2 -11 8 -42 13 -70 61 -355 244 -766 485 -1092 80 -108 103 -137 205
-247 459 -497 1112 -837 1805 -941 161 -24 163 -24 281 -31 175 -11 478 -5
559 10 11 2 51 7 90 11 38 4 72 8 76 10 3 2 28 7 55 10 60 8 415 94 429 105 6
4 24 10 40 14 74 18 276 104 443 189 746 381 1293 1055 1486 1832 14 55 28
114 31 130 14 75 34 227 40 295 7 81 7 343 1 400 -2 19 -7 67 -11 105 -3 39
-8 77 -10 85 -2 8 -6 31 -9 50 -26 173 -105 449 -171 595 -89 199 -154 318
-249 460 -150 223 -345 439 -551 610 -33 28 -71 60 -85 73 -14 12 -28 22 -32
22 -3 0 -13 6 -20 13 -22 21 -194 136 -260 174 -206 117 -348 183 -553 258
-119 43 -345 106 -427 119 -21 3 -57 10 -80 15 -46 10 -94 17 -173 26 -27 3
-66 8 -85 11 -42 6 -505 16 -511 10z m471 -709 c14 -3 48 -8 75 -11 75 -10
181 -31 268 -52 9 -2 26 -6 38 -9 11 -2 64 -18 116 -35 465 -151 858 -422
1142 -787 221 -285 376 -654 407 -973 3 -30 7 -66 10 -80 6 -32 5 -287 0 -320
-3 -14 -7 -53 -11 -88 -7 -79 -28 -182 -61 -295 -111 -390 -373 -777 -705
-1040 -46 -37 -88 -71 -94 -75 -140 -111 -448 -268 -665 -338 -76 -25 -240
-68 -295 -78 -16 -3 -41 -8 -55 -11 -14 -3 -45 -8 -70 -11 -25 -3 -56 -7 -70
-10 -40 -7 -238 -18 -320 -17 -82 0 -276 12 -300 18 -8 2 -37 6 -65 10 -338
40 -784 217 -1060 419 -175 129 -277 221 -402 365 -173 198 -300 413 -389 659
-19 50 -33 93 -33 95 0 1 -2 9 -5 17 -18 57 -53 233 -64 325 -9 79 -8 342 1
425 30 270 115 527 255 770 99 172 193 293 352 451 312 309 705 522 1147 623
123 28 178 37 323 52 36 3 67 8 68 10 5 4 433 -4 462 -9z"/>
</g>
</svg>
